{"title":"Dragons Riders of Berk Season 3 (1080p) [XxUnkn0wnxX]","uid":12073114,"size":28259877036,"categoryP":"video","categoryS":"hd___tv_shows","magnet":"?xt=urn:btih:d2e2015852d120ccaba0a8d2653fdbc7883a9103&amp;dn=Dragons+Riders+of+Berk+Season+3+%281080p%29+%5BXxUnkn0wnxX%5D&amp;tr=udp%3A%2F%2Ftracker.openbittorrent.com%3A80&amp;tr=udp%3A%2F%2Fopen.demonii.com%3A1337&amp;tr=udp%3A%2F%2Ftracker.coppersurfer.tk%3A6969&amp;tr=udp%3A%2F%2Fexodus.desync.com%3A6969","seeders":1,"leechers":1,"uploader":"Unkn0wnxX","files":16,"time":1435575273,"description":"Info:\nAll Ep's Ripped Of NetFlix\n\nTitle: Dragons Riders Of Berk, Race To The Edge\n\nThe Proper Order Is Listed Here: &lt;a href=&quot;\nhttp://thetvdb.com/?tab=season&amp;seriesid=261202&amp;seasonid=607577&amp;lid=7&quot; rel=&quot;nofollow&quot; target=&quot;_NEW&quot;&gt;\nhttp://thetvdb.com/?tab=season&amp;seriesid=261202&amp;seasonid=607577&amp;lid=7&lt;/a&gt;\n\nif you need a player to play these just install this: &lt;a href=&quot;\nhttp://www.videolan.org/vlc/index.html&quot; rel=&quot;nofollow&quot; target=&quot;_NEW&quot;&gt;\nhttp://www.videolan.org/vlc/index.html&lt;/a&gt;\n\nVideo Details:\n\nResolution is 1920x1080 (HD 1080P)\n \nAudio Is 2Ch\nLanguage English\n \nStatistics Based On EP01\n \nFormat : Matroska\nOverall bit rate : 11.1 Mbps\nWriting application : Lavf55.19.104\nWriting library : Lavf55.19.104\n \nVideo\nFormat : AVC\nFormat/Info : Advanced Video Codec\nFormat profile : &lt;a class=&quot;__cf_email__&quot; href=&quot;/cdn-cgi/l/email-protection&quot; data-cfemail=&quot;9dd5f4faf5ddd1a9b3ac&quot;&gt;[email&amp;#160;protected]&lt;/a&gt;&lt;script data-cfhash='f9e31' type=&quot;text/javascript&quot;&gt;\n/* &lt;![CDATA[ */!function(){try{var t=&quot;currentScript&quot;in document?document.currentScript:function(){for(var t=document.getElementsByTagName(&quot;script&quot;),e=t.length;e--;)if(t[e].getAttribute(&quot;data-cfhash&quot;))return t[e]}();if(t&amp;&amp;t.previousSibling){var e,r,n,i,c=t.previousSibling,a=c.getAttribute(&quot;data-cfemail&quot;);if(a){for(e=&quot;&quot;,r=parseInt(a.substr(0,2),16),n=2;a.length-n;n+=2)i=parseInt(a.substr(n,2),16)^r,e+=String.fromCharCode(i);e=document.createTextNode(e),c.parentNode.replaceChild(e,c)}t.parentNode.removeChild(t);}}catch(u){}}()/* ]]&gt; */&lt;/script&gt;\nFormat settings, CABAC : Yes\nFormat settings, ReFrames : 4 frames\nCodec ID : V_MPEG4/ISO/AVC\nBit rate : 10.6 Mbps\nWidth : 1 920 pixels\nHeight : 1 080 pixels\nDisplay aspect ratio : 16:9\nFrame rate mode : Constant\nFrame rate : 30.000 fps\nColor space : YUV\nChroma subsampling : 4:2:0\nBit depth : 8 bits\nScan type : Progressive\nBits/(Pixel*Frame) : 0.170\nStream size : 1.67 GiB (95%)\nTitle : Video Track\nWriting library : x264 core 142 r2479 dd79a61\nLanguage : English\nDefault : Yes\nForced : No\nColor range : Limited\nColor primaries : BT.709\nTransfer characteristics : BT.709\nMatrix coefficients : BT.709\nHANDLER_NAME : VideoHandler\n \nAudio\n \nFormat : AC-3\nFormat/Info : Audio Coding 3\nMode extension : CM (complete main)\nFormat settings, Endianness : Big\nCodec ID : A_AC3\nDuration : 22mn 40s\nBit rate mode : Constant\nBit rate : 320 Kbps\nChannel(s) : 2 channels\nChannel positions : Front: L R\nSampling rate : 48.0 KHz\nBit depth : 16 bits\nCompression mode : Lossy\nStream size : 51.9 MiB (3%)\nTitle : Audio Track\nLanguage : English\nDefault : Yes\nForced : No\nHANDLER_NAME : Stereo\n\nScreens:\n &lt;a href=&quot;\nhttp://puu.sh/iGKBE.png&quot; rel=&quot;nofollow&quot; target=&quot;_NEW&quot;&gt;\nhttp://puu.sh/iGKBE.png&lt;/a&gt; &lt;a href=&quot;\nhttp://puu.sh/iGKQB.png&quot; rel=&quot;nofollow&quot; target=&quot;_NEW&quot;&gt;\nhttp://puu.sh/iGKQB.png&lt;/a&gt; &lt;a href=&quot;\nhttp://puu.sh/iGKY2.png&quot; rel=&quot;nofollow&quot; target=&quot;_NEW&quot;&gt;\nhttp://puu.sh/iGKY2.png&lt;/a&gt;","torrent":{"xt":"urn:btih:d2e2015852d120ccaba0a8d2653fdbc7883a9103","amp;dn":"Dragons+Riders+of+Berk+Season+3+%281080p%29+%5BXxUnkn0wnxX%5D","amp;tr":["udp%3A%2F%2Ftracker.openbittorrent.com%3A80","udp%3A%2F%2Fopen.demonii.com%3A1337","udp%3A%2F%2Ftracker.coppersurfer.tk%3A6969","udp%3A%2F%2Fexodus.desync.com%3A6969"],"infoHash":"d2e2015852d120ccaba0a8d2653fdbc7883a9103","infoHashBuffer":{"type":"Buffer","data":[210,226,1,88,82,209,32,204,171,160,168,210,101,63,219,199,136,58,145,3]},"announce":[],"urlList":[]}}